<mxfile host="app.diagrams.net" modified="2022-07-24T06:38:36.042Z" agent="5.0 (Macintosh; Intel Mac OS X 10_15_7) AppleWebKit/537.36 (KHTML, like Gecko) Chrome/103.0.0.0 Safari/537.36" etag="ihVexkzQ5h6k93kn2L56" version="20.2.0" type="github">
  <diagram id="vMsNyktyeM7URCQ9uDfv" name="第 1 页">
    <mxGraphModel dx="2514" dy="1324" grid="1" gridSize="10" guides="1" tooltips="1" connect="1" arrows="1" fold="1" page="1" pageScale="1" pageWidth="827" pageHeight="1169" math="0" shadow="0">
      <root>
        <mxCell id="0" />
        <mxCell id="1" parent="0" />
        <mxCell id="C8L0UluOsNpBf5Bt-KL0-1" value="" style="rounded=0;whiteSpace=wrap;html=1;fillColor=#fff2cc;strokeColor=#d6b656;" vertex="1" parent="1">
          <mxGeometry x="130" y="570" width="120" height="120" as="geometry" />
        </mxCell>
        <mxCell id="C8L0UluOsNpBf5Bt-KL0-2" value="" style="rounded=0;whiteSpace=wrap;html=1;fillColor=#fff2cc;strokeColor=#d6b656;" vertex="1" parent="1">
          <mxGeometry x="250" y="570" width="120" height="120" as="geometry" />
        </mxCell>
        <mxCell id="C8L0UluOsNpBf5Bt-KL0-3" value="" style="rounded=0;whiteSpace=wrap;html=1;fillColor=#fff2cc;strokeColor=#d6b656;" vertex="1" parent="1">
          <mxGeometry x="250" y="690" width="120" height="120" as="geometry" />
        </mxCell>
        <mxCell id="C8L0UluOsNpBf5Bt-KL0-4" value="" style="rounded=0;whiteSpace=wrap;html=1;fillColor=#fff2cc;strokeColor=#d6b656;" vertex="1" parent="1">
          <mxGeometry x="130" y="690" width="120" height="120" as="geometry" />
        </mxCell>
        <mxCell id="C8L0UluOsNpBf5Bt-KL0-5" value="A" style="text;html=1;align=center;verticalAlign=middle;resizable=0;points=[];autosize=1;" vertex="1" parent="1">
          <mxGeometry x="145" y="580" width="30" height="30" as="geometry" />
        </mxCell>
        <mxCell id="C8L0UluOsNpBf5Bt-KL0-6" value="B" style="text;html=1;align=center;verticalAlign=middle;resizable=0;points=[];autosize=1;" vertex="1" parent="1">
          <mxGeometry x="270" y="640" width="30" height="30" as="geometry" />
        </mxCell>
        <mxCell id="C8L0UluOsNpBf5Bt-KL0-7" value="C" style="text;html=1;align=center;verticalAlign=middle;resizable=0;points=[];autosize=1;" vertex="1" parent="1">
          <mxGeometry x="210" y="710" width="30" height="30" as="geometry" />
        </mxCell>
        <mxCell id="C8L0UluOsNpBf5Bt-KL0-8" value="D" style="text;html=1;align=center;verticalAlign=middle;resizable=0;points=[];autosize=1;" vertex="1" parent="1">
          <mxGeometry x="330" y="770" width="30" height="30" as="geometry" />
        </mxCell>
        <mxCell id="C8L0UluOsNpBf5Bt-KL0-10" value="" style="rounded=0;whiteSpace=wrap;html=1;" vertex="1" parent="1">
          <mxGeometry x="250" y="950" width="120" height="120" as="geometry" />
        </mxCell>
        <mxCell id="C8L0UluOsNpBf5Bt-KL0-11" value="" style="rounded=0;whiteSpace=wrap;html=1;" vertex="1" parent="1">
          <mxGeometry x="250" y="1070" width="120" height="120" as="geometry" />
        </mxCell>
        <mxCell id="C8L0UluOsNpBf5Bt-KL0-12" value="" style="rounded=0;whiteSpace=wrap;html=1;" vertex="1" parent="1">
          <mxGeometry x="130" y="1070" width="120" height="120" as="geometry" />
        </mxCell>
        <mxCell id="C8L0UluOsNpBf5Bt-KL0-17" value="E" style="text;html=1;align=center;verticalAlign=middle;resizable=0;points=[];autosize=1;strokeColor=none;fillColor=none;" vertex="1" parent="1">
          <mxGeometry x="300" y="995" width="30" height="30" as="geometry" />
        </mxCell>
        <mxCell id="C8L0UluOsNpBf5Bt-KL0-18" value="F" style="text;html=1;align=center;verticalAlign=middle;resizable=0;points=[];autosize=1;strokeColor=none;fillColor=none;" vertex="1" parent="1">
          <mxGeometry x="270" y="1120" width="30" height="30" as="geometry" />
        </mxCell>
        <mxCell id="C8L0UluOsNpBf5Bt-KL0-19" value="G" style="text;html=1;align=center;verticalAlign=middle;resizable=0;points=[];autosize=1;strokeColor=none;fillColor=none;" vertex="1" parent="1">
          <mxGeometry x="175" y="1115" width="30" height="30" as="geometry" />
        </mxCell>
        <mxCell id="C8L0UluOsNpBf5Bt-KL0-28" value="" style="group;fillColor=#fff2cc;strokeColor=#d6b656;" vertex="1" connectable="0" parent="1">
          <mxGeometry x="130" y="950" width="120" height="120" as="geometry" />
        </mxCell>
        <mxCell id="C8L0UluOsNpBf5Bt-KL0-20" value="" style="rounded=0;whiteSpace=wrap;html=1;fillColor=#fff2cc;strokeColor=#d6b656;" vertex="1" parent="C8L0UluOsNpBf5Bt-KL0-28">
          <mxGeometry width="60" height="60" as="geometry" />
        </mxCell>
        <mxCell id="C8L0UluOsNpBf5Bt-KL0-21" value="" style="rounded=0;whiteSpace=wrap;html=1;fillColor=#fff2cc;strokeColor=#d6b656;" vertex="1" parent="C8L0UluOsNpBf5Bt-KL0-28">
          <mxGeometry x="60" width="60" height="60" as="geometry" />
        </mxCell>
        <mxCell id="C8L0UluOsNpBf5Bt-KL0-22" value="" style="rounded=0;whiteSpace=wrap;html=1;fillColor=#fff2cc;strokeColor=#d6b656;" vertex="1" parent="C8L0UluOsNpBf5Bt-KL0-28">
          <mxGeometry x="60" y="60" width="60" height="60" as="geometry" />
        </mxCell>
        <mxCell id="C8L0UluOsNpBf5Bt-KL0-23" value="" style="rounded=0;whiteSpace=wrap;html=1;fillColor=#fff2cc;strokeColor=#d6b656;" vertex="1" parent="C8L0UluOsNpBf5Bt-KL0-28">
          <mxGeometry y="60" width="60" height="60" as="geometry" />
        </mxCell>
        <mxCell id="C8L0UluOsNpBf5Bt-KL0-24" value="A" style="text;html=1;align=center;verticalAlign=middle;resizable=0;points=[];autosize=1;" vertex="1" parent="C8L0UluOsNpBf5Bt-KL0-28">
          <mxGeometry x="7.5" y="5" width="30" height="30" as="geometry" />
        </mxCell>
        <mxCell id="C8L0UluOsNpBf5Bt-KL0-27" value="D" style="text;html=1;align=center;verticalAlign=middle;resizable=0;points=[];autosize=1;" vertex="1" parent="C8L0UluOsNpBf5Bt-KL0-28">
          <mxGeometry x="90" y="90" width="30" height="30" as="geometry" />
        </mxCell>
        <mxCell id="C8L0UluOsNpBf5Bt-KL0-29" value="" style="endArrow=none;dashed=1;html=1;rounded=0;entryX=0;entryY=1;entryDx=0;entryDy=0;exitX=0;exitY=0;exitDx=0;exitDy=0;fillColor=#d5e8d4;strokeColor=#82b366;strokeWidth=3;" edge="1" parent="1" source="C8L0UluOsNpBf5Bt-KL0-20" target="C8L0UluOsNpBf5Bt-KL0-4">
          <mxGeometry width="50" height="50" relative="1" as="geometry">
            <mxPoint x="390" y="860" as="sourcePoint" />
            <mxPoint x="440" y="810" as="targetPoint" />
          </mxGeometry>
        </mxCell>
        <mxCell id="C8L0UluOsNpBf5Bt-KL0-30" value="" style="endArrow=none;dashed=1;html=1;rounded=0;entryX=1;entryY=1;entryDx=0;entryDy=0;exitX=1;exitY=0;exitDx=0;exitDy=0;fillColor=#d5e8d4;strokeColor=#82b366;strokeWidth=3;" edge="1" parent="1" source="C8L0UluOsNpBf5Bt-KL0-21" target="C8L0UluOsNpBf5Bt-KL0-3">
          <mxGeometry width="50" height="50" relative="1" as="geometry">
            <mxPoint x="390" y="860" as="sourcePoint" />
            <mxPoint x="440" y="810" as="targetPoint" />
          </mxGeometry>
        </mxCell>
      </root>
    </mxGraphModel>
  </diagram>
</mxfile>
